<svg xmlns="http://www.w3.org/2000/svg" fill="none" viewBox="0 0 1380 797" height="797" width="1380">
<rect fill="white" height="797" width="1380"></rect>
<path fill="#7CCED0" d="M1312.37 390.168C1305.95 390.168 1300.74 395.378 1300.74 401.807C1300.74 408.233 1305.95 413.445 1312.37 413.445C1318.8 413.445 1324.01 408.233 1324.01 401.807C1324.01 395.378 1318.8 390.168 1312.37 390.168Z"></path>
<path fill="#7CCED0" d="M26.4969 609.416C20.0701 609.416 14.8602 614.625 14.8602 621.054C14.8602 627.482 20.0701 632.692 26.4969 632.692C32.9254 632.692 38.137 627.482 38.137 621.054C38.137 614.625 32.9254 609.416 26.4969 609.416Z"></path>
<path fill="#F9A46F" d="M63.2153 167C58.6781 167 54.9999 170.678 54.9999 175.215C54.9999 179.753 58.678 183.431 63.2153 183.431C67.7526 183.431 71.4307 179.753 71.4307 175.215C71.4307 170.678 67.7526 167 63.2153 167Z"></path>
<path fill="#F9A46F" d="M1105.28 560.808C1101.49 560.808 1098.43 563.874 1098.43 567.654C1098.43 571.435 1101.49 574.5 1105.28 574.5C1109.06 574.5 1112.12 571.435 1112.12 567.654C1112.12 563.874 1109.06 560.808 1105.28 560.808Z"></path>
<path fill="#A5B9E0" d="M1373.65 193C1370.24 193 1367.48 195.759 1367.48 199.162C1367.48 202.564 1370.24 205.323 1373.65 205.323C1377.05 205.323 1379.81 202.564 1379.81 199.162C1379.81 195.759 1377.05 193 1373.65 193Z"></path>
<path fill="#A5B9E0" d="M1267.85 703C1264.07 703 1261 706.065 1261 709.846C1261 713.627 1264.07 716.692 1267.85 716.692C1271.63 716.692 1274.69 713.627 1274.69 709.846C1274.69 706.065 1271.63 703 1267.85 703Z"></path>
<path fill="#FED519" d="M234.163 65C230.759 65 228 67.7586 228 71.1615C228 74.5644 230.759 77.323 234.163 77.323C237.566 77.323 240.325 74.5644 240.325 71.1615C240.325 67.7586 237.566 65 234.163 65Z" opacity="0.4"></path>
<path fill="#F9A46F" d="M219.888 435.016C224.425 434.98 228.074 431.274 228.04 426.737C228.004 422.2 224.299 418.551 219.761 418.585C215.224 418.619 211.573 422.326 211.609 426.864C211.644 431.401 215.351 435.05 219.888 435.016Z"></path>
<path fill="#A5B9E0" d="M6.8996 448.805C10.6804 448.776 13.7218 445.689 13.6927 441.908C13.6636 438.127 10.5742 435.086 6.79346 435.115C3.01269 435.144 -0.0286978 438.231 0.000397928 442.012C0.0294937 445.793 3.11711 448.834 6.8996 448.805Z"></path>
<path fill="#FED519" d="M109.424 382.121C112.827 382.095 115.565 379.315 115.538 375.913C115.512 372.51 112.732 369.772 109.33 369.799C105.927 369.825 103.189 372.605 103.215 376.007C103.242 379.41 106.021 382.148 109.424 382.121Z" opacity="0.4"></path>
<path fill="#FED519" d="M229.354 553.383C232.758 553.358 235.494 550.578 235.468 547.176C235.442 543.773 232.663 541.035 229.26 541.062C225.858 541.088 223.119 543.867 223.146 547.27C223.172 550.672 225.952 553.411 229.354 553.383Z" opacity="0.4"></path>
</svg>
